<svg id="Layer_1" data-name="Layer 1" xmlns="http://www.w3.org/2000/svg" viewBox="0 0 621 150"><title>CS_SousVide_Masthead_wTag</title><path d="M506.347,13.426H473.715V91.5h32.742c16.426,0,31.756-9.2,31.756-28.581V40.912C538.213,22.734,523.759,13.426,506.347,13.426Zm12.265,49.606c0,7.994-6.242,12.483-13.36,12.483H493.316v-46.1h11.389c7.775,0,13.907,4.6,13.907,12.155ZM318.725,45.073h32.742V59.856H318.725ZM440.536,13.426h19.6V91.5h-19.6Zm-30.088,0h18.615l-25.4,78.3H383.619l-24.748-78.3H379.02l15.33,55.081h.329ZM609.5,75.515V91.5H551.791V13.426h57.49V29.3H571.392V44.2h31.866V59.965H571.392v15.55ZM305.781,67.3c0,16.974-15.33,25.515-31.427,25.515-13.688,0-25.625-3.723-33.071-14.126l12.374-11.06a24.766,24.766,0,0,0,19.821,9.855c5.913,0,12.264-1.861,12.264-7.337,0-4.818-3.942-6.57-8.76-7.884l-13.469-3.5c-10.622-2.847-18.507-8.979-18.507-21.572,0-14.565,12.484-25.077,29.786-25.077,13.8,0,22.01,3.395,28.909,11.826L291.327,34.67c-3.833-4.928-10.4-7.227-16.535-7.227-5.695,0-10.622,1.971-10.622,7.336,0,4.49,4.708,6.023,10.622,7.556l12.264,3.285C298.226,48.468,305.781,55.147,305.781,67.3ZM212.615,13.426h19.163V63.032c0,19.491-14.455,29.785-32.742,29.785-19.82,0-32.194-9.417-32.194-29.019V13.426h19.492V62.484c0,8.761,4.6,14.236,13.359,14.236,8.213,0,12.922-4.928,12.922-14.236ZM76,67.3C76,84.276,60.667,92.817,44.57,92.817c-13.688,0-25.624-3.723-33.07-14.126l12.374-11.06a24.764,24.764,0,0,0,19.82,9.855c5.914,0,12.265-1.861,12.265-7.337,0-4.818-3.942-6.57-8.761-7.884l-13.469-3.5c-10.622-2.847-18.506-8.979-18.506-21.572,0-14.565,12.484-25.077,29.785-25.077,13.8,0,22.011,3.395,28.91,11.826L61.544,34.67c-3.833-4.928-10.4-7.227-16.536-7.227-5.694,0-10.622,1.971-10.622,7.336,0,4.49,4.709,6.023,10.622,7.556L57.273,45.62C68.442,48.468,76,55.147,76,67.3Zm43.758-55.19C103,12.112,86.8,21.858,86.8,41.678V64.236c0,20.149,15.878,28.581,33.4,28.581,16.316,0,33.07-9.2,33.07-29.566V41.569C153.264,21.42,137.167,12.112,119.756,12.112Zm13.907,51.8c0,8.87-6.57,12.812-13.469,12.812-7.994,0-13.8-4.6-13.8-12.922V40.912c0-9.089,6.461-12.812,13.469-12.812,7.337,0,13.8,4.489,13.8,12.7Z"/><path d="M13.412,112H31.421v4.134h-6.5v18.713h-5V116.131H13.412Zm30.44,5.864a5.714,5.714,0,0,0-4.775,2.468h-.064V112H34.4v22.847h4.615v-9.357c0-2.563,1.185-3.78,3.044-3.78,1.955,0,2.82,1.377,2.82,3.46v9.677h4.582V123.757C49.459,119.912,47.184,117.861,43.852,117.861Zm23.965,6.665v3.237H57.4v.769c0,2.018,1.763,3.044,3.653,3.044a5.856,5.856,0,0,0,3.974-1.826l2.531,2.371a8.226,8.226,0,0,1-6.921,3.108c-4.134,0-7.979-2.115-7.979-6.793v-3.173c0-4.87,3.749-7.37,7.882-7.37C64.229,117.893,67.817,120.072,67.817,124.526Zm-4.486-.192a2.668,2.668,0,0,0-2.852-2.852,2.874,2.874,0,0,0-3.076,3.044v.321h5.928Zm27.426-12.369,8.2,22.879H93.77l-1.539-4.582H83.8l-1.57,4.582H77.427l8.3-22.879Zm.193,14.26-2.884-8.748H88l-2.916,8.748Zm14.9-5.256h-.064v-2.755H101.3v16.63h4.582v-8.587c0-2.981,2.244-4.294,4.807-4.294a13.271,13.271,0,0,1,1.858.128v-4.07a7.6,7.6,0,0,0-1.474-.1A6.5,6.5,0,0,0,105.847,120.969Zm15.251-7.53h-4.582v4.871h-2.179V121.8h2.179v8.94c0,3.236,2.275,4.39,4.838,4.39a14.067,14.067,0,0,0,3.269-.417v-3.749a10.531,10.531,0,0,1-2.019.16,1.326,1.326,0,0,1-1.506-1.506V121.8h3.557V118.31H121.1Zm32.553,16.246,4.743,5.159h-6.345l-2.018-2.147a11.377,11.377,0,0,1-7.531,2.66c-4.485,0-7.658-2.531-7.658-6.537,0-2.948,2.083-5.479,5.479-6.7-1.185-1.218-2.371-2.948-2.371-4.614,0-3.173,2.211-5.928,7.659-5.928,4.2,0,6.793,2.339,6.793,5.319,0,3.108-2.435,5.127-5.031,6.024l3.493,3.846a17.585,17.585,0,0,0,1.025-3.045l3.909.417A15.754,15.754,0,0,1,153.651,129.685Zm-10.574-12.529a5.1,5.1,0,0,0,1.442,2.564l.8.929a3.8,3.8,0,0,0,2.884-3.685,2.189,2.189,0,0,0-2.371-2.179C143.942,114.785,143.077,115.811,143.077,117.156Zm4.486,12.85-5.095-5.576a4.354,4.354,0,0,0-2.787,3.942c0,1.986,1.474,3.268,3.877,3.268A5.543,5.543,0,0,0,147.563,130.006Zm32.873-8.363-3.782-.962c-1.73-.481-3.2-1.057-3.2-2.532,0-1.794,1.634-2.5,3.4-2.5a5.332,5.332,0,0,1,4.838,2.371l3.589-2.339c-1.762-2.948-4.358-4.069-8.267-4.069-4.742,0-8.46,2.787-8.46,7.081,0,3.846,2.4,5.448,5.448,6.217l3.909.993c1.6.449,2.852,1.09,2.852,2.628,0,1.858-2.019,2.595-4.038,2.595a6.261,6.261,0,0,1-5.639-3.172l-3.749,2.371c1.666,3.461,5.351,4.871,9.453,4.871,4.87,0,9-2.628,9-7.21C185.787,124.174,183.416,122.379,180.436,121.643Zm15.763-3.75c-4.07,0-7.819,2.467-7.819,7.274v3.269c0,4.614,3.877,6.793,7.915,6.793,3.749,0,7.37-2.019,7.37-6.281V128.5h-4.486v.288a2.641,2.641,0,0,1-2.852,2.82,2.913,2.913,0,0,1-3.2-3.012V124.59a2.851,2.851,0,0,1,3.107-3.044,2.714,2.714,0,0,1,2.949,2.82v.417h4.486v-.513C203.665,120.008,199.948,117.893,196.2,117.893Zm10.411,16.951h4.614v-16.63H206.61Zm0-18.906h4.614v-4.421H206.61Zm23.166,8.588v3.237H219.362v.769c0,2.018,1.763,3.044,3.653,3.044a5.856,5.856,0,0,0,3.974-1.826l2.531,2.371a8.226,8.226,0,0,1-6.921,3.108c-4.134,0-7.979-2.115-7.979-6.793v-3.173c0-4.87,3.749-7.37,7.882-7.37C226.187,117.893,229.776,120.072,229.776,124.526Zm-4.486-.192a2.668,2.668,0,0,0-2.852-2.852,2.874,2.874,0,0,0-3.076,3.044v.321h5.928Zm17.365-6.473a5.869,5.869,0,0,0-4.9,2.435h-.064v-2.082H233.2v16.63h4.614v-9.357c0-2.563,1.185-3.78,3.044-3.78,1.955,0,2.82,1.377,2.82,3.46v9.677h4.582V123.757C248.263,119.912,245.988,117.861,242.655,117.861Zm16.629.032c-4.069,0-7.819,2.467-7.819,7.274v3.269c0,4.614,3.878,6.793,7.915,6.793,3.749,0,7.37-2.019,7.37-6.281V128.5h-4.486v.288a2.641,2.641,0,0,1-2.852,2.82,2.913,2.913,0,0,1-3.2-3.012V124.59a2.851,2.851,0,0,1,3.108-3.044,2.713,2.713,0,0,1,2.948,2.82v.417h4.486v-.513C266.75,120.008,263.033,117.893,259.284,117.893Zm24.863,6.633v3.237H273.733v.769c0,2.018,1.762,3.044,3.653,3.044a5.851,5.851,0,0,0,3.973-1.826l2.532,2.371a8.226,8.226,0,0,1-6.922,3.108c-4.134,0-7.979-2.115-7.979-6.793v-3.173c0-4.87,3.749-7.37,7.883-7.37C280.558,117.893,284.147,120.072,284.147,124.526Zm-4.486-.192a2.668,2.668,0,0,0-2.852-2.852,2.874,2.874,0,0,0-3.076,3.044v.321h5.928Zm30.567.513v3.428c0,4.679-4.006,6.954-7.723,6.954-4,0-7.819-2.051-7.819-6.6v-3.685c0-4.678,3.91-7.05,7.69-7.05C306.382,117.893,310.228,120.3,310.228,124.847Zm-4.679-.353a2.889,2.889,0,0,0-3.14-2.916,2.827,2.827,0,0,0-3.044,3.012v4.1a3.1,3.1,0,0,0,6.184-.064Zm13.519-8.171c0-.9.578-1.218,1.314-1.218a12.469,12.469,0,0,1,1.57.128v-3.524a11.988,11.988,0,0,0-2.4-.225c-3.044,0-5.03,1.571-5.03,4.871v1.955h-2.276v3.428h2.276v13.106h4.549V121.738h2.916V118.31h-2.916Zm25.184,5.32-3.781-.962c-1.731-.481-3.2-1.057-3.2-2.532,0-1.794,1.633-2.5,3.4-2.5a5.334,5.334,0,0,1,4.839,2.371l3.589-2.339c-1.763-2.948-4.359-4.069-8.268-4.069-4.742,0-8.459,2.787-8.459,7.081,0,3.846,2.4,5.448,5.448,6.217l3.909.993c1.6.449,2.851,1.09,2.851,2.628,0,1.858-2.018,2.595-4.037,2.595a6.26,6.26,0,0,1-5.639-3.172l-3.75,2.371c1.666,3.461,5.351,4.871,9.453,4.871,4.871,0,9-2.628,9-7.21C349.6,124.174,347.231,122.379,344.252,121.643Zm23.485,3.2v3.428c0,4.679-4.006,6.954-7.722,6.954-4.006,0-7.819-2.051-7.819-6.6v-3.685c0-4.678,3.909-7.05,7.691-7.05C363.892,117.893,367.737,120.3,367.737,124.847Zm-4.678-.353a2.889,2.889,0,0,0-3.14-2.916,2.828,2.828,0,0,0-3.045,3.012v4.1a3.1,3.1,0,0,0,6.185-.064Zm18.422,3.044c0,2.564-1.153,3.814-3.011,3.814-1.988,0-2.853-1.378-2.853-3.461v-9.677h-4.582v11.055c0,3.813,2.308,5.928,5.64,5.928a5.743,5.743,0,0,0,4.871-2.532h.063v2.179H386.1v-16.63h-4.615Zm18.134-2.755-2.692-.545c-1.442-.257-2.755-.417-2.755-1.474s.961-1.57,2.435-1.57a5.05,5.05,0,0,1,3.781,1.538l2.916-2.4c-1.634-1.795-3.621-2.468-6.7-2.468-3.845,0-6.826,2.179-6.826,5.576,0,2.467,1.731,3.813,4.422,4.358.865.256,2.532.544,2.564.544,1.8.321,2.628.609,2.628,1.731,0,1.282-1.538,1.7-2.949,1.7a6.352,6.352,0,0,1-4.646-2.051l-2.755,2.6c1.922,2.243,4.582,2.884,7.594,2.884,3.428,0,7.5-1.762,7.5-5.7C404.133,127.058,402.5,125.359,399.615,124.783Zm6.855,2.4h9.388v-3.813H406.47Zm19.186,1.282h-.1L420.722,112h-5.255l7.4,22.943h5l7.5-22.943h-4.838Zm11.887-12.53h4.614v-4.421h-4.614Zm0,18.906h4.614v-16.63h-4.614Zm19-22.847h4.583v22.847H456.64v-1.89h-.065a6.432,6.432,0,0,1-4.646,2.275c-3.685,0-6.376-2.307-6.376-6.377v-4.518c0-4.166,3.011-6.473,6.7-6.473a5.469,5.469,0,0,1,4.2,1.955h.1Zm0,12.4c0-1.922-1.538-2.916-3.269-2.916a2.871,2.871,0,0,0-3.076,3.044v4.006a3.178,3.178,0,0,0,6.345-.1Zm23.134.128v3.237H469.263v.769c0,2.018,1.762,3.044,3.653,3.044a5.851,5.851,0,0,0,3.973-1.826l2.532,2.371a8.228,8.228,0,0,1-6.922,3.108c-4.134,0-7.978-2.115-7.978-6.793v-3.173c0-4.87,3.749-7.37,7.882-7.37C476.088,117.893,479.677,120.072,479.677,124.526Zm-4.487-.192a2.668,2.668,0,0,0-2.851-2.852,2.874,2.874,0,0,0-3.076,3.044v.321h5.927Zm24.7-12.721c-5.032,0-9.357,2.916-9.357,8.427v7.114c0,5.415,4.486,8.075,9.485,8.075,4.421,0,8.876-2.339,8.876-7.53v-.9h-4.71v.417c0,2.692-2.211,3.781-4.134,3.781-2.5,0-4.55-1.474-4.55-4V119.88c0-2.916,2.339-4.038,4.422-4.038,1.923,0,4.262,1.09,4.262,3.75v.448h4.71v-.9C508.9,113.952,504.281,111.613,499.892,111.613Zm27.394,13.234v3.428c0,4.679-4.006,6.954-7.723,6.954-4,0-7.818-2.051-7.818-6.6v-3.685c0-4.678,3.909-7.05,7.691-7.05C523.44,117.893,527.286,120.3,527.286,124.847Zm-4.679-.353a2.888,2.888,0,0,0-3.139-2.916,2.827,2.827,0,0,0-3.045,3.012v4.1a3.1,3.1,0,0,0,6.184-.064Zm22.91.353v3.428c0,4.679-4.006,6.954-7.723,6.954-4.006,0-7.818-2.051-7.818-6.6v-3.685c0-4.678,3.909-7.05,7.69-7.05C541.671,117.893,545.517,120.3,545.517,124.847Zm-4.679-.353a2.889,2.889,0,0,0-3.14-2.916,2.828,2.828,0,0,0-3.045,3.012v4.1a3.1,3.1,0,0,0,6.185-.064Zm23.422-6.28h-5.1l-5.608,6.7L553.525,112h-4.583v22.847h4.583v-5.159l1.987-2.179,3.844,7.338h5.064l-5.608-10.478Zm2.786-2.276h4.614v-4.421h-4.614Zm0,18.906h4.614v-16.63h-4.614Zm18.167-16.983a5.869,5.869,0,0,0-4.9,2.435h-.065v-2.082h-4.485v16.63h4.614v-9.357c0-2.563,1.186-3.78,3.044-3.78,1.954,0,2.819,1.377,2.819,3.46v9.677h4.582V123.757C590.82,119.912,588.546,117.861,585.213,117.861Zm24.287.353v15.092c0,4.326-2.659,7.819-8.235,7.851-2.692-.032-5.64-1.057-6.921-3.333l3.236-2.115a4.755,4.755,0,0,0,3.845,1.859,3.286,3.286,0,0,0,3.557-3.621v-1.666h-.064A5.248,5.248,0,0,1,600.5,134.4c-3.974,0-6.409-2.275-6.409-6.313v-3.525a6.292,6.292,0,0,1,6.5-6.7,5.755,5.755,0,0,1,4.454,2.147h.064v-1.794Zm-4.518,6.28a2.9,2.9,0,0,0-3.2-2.916,2.832,2.832,0,0,0-3.044,3.045v3.3a2.905,2.905,0,0,0,3.173,2.948,2.853,2.853,0,0,0,3.076-3.044Z"/></svg>