<svg id="Layer_1" data-name="Layer 1" xmlns="http://www.w3.org/2000/svg" viewBox="0 0 878.04 132.37"><title>mp_logo</title><path d="M274.79,403l-8.11,12.11-71.87-43.36v-8.5l71.87-43.36,8.11,11.92-63.38,34.67v2.24Z" transform="translate(-194.81 -311.02)" style="fill:#fff"/><path d="M309.1,417.59v-82.2h23.16l18.36,64.2L369,335.39h23.28v82.2H378.82V350.15H377l-19.44,64.08H343.66l-19.44-64.08h-1.8v67.44Z" transform="translate(-194.81 -311.02)" style="fill:#2e3192"/><path d="M448.54,406.79l3.36-.36.24,9.72a124.25,124.25,0,0,1-24.24,2.76q-13.32,0-19.14-7.32t-5.82-23.4q0-31.92,26-31.92,25.2,0,25.2,27.48l-.84,9.36h-37.2q.12,7.44,3.24,10.92T431,407.51Q439.54,407.51,448.54,406.79ZM441.34,383q0-8.88-2.82-12.42T429,367.07q-6.72,0-9.78,3.72T416,383Z" transform="translate(-194.81 -311.02)" style="fill:#2e3192"/><path d="M464.5,417.59v-85h13.08v85Z" transform="translate(-194.81 -311.02)" style="fill:#2e3192"/><path d="M491.14,347.39v-13.8h13.08v13.8Zm0,70.2v-60h13.08v60Z" transform="translate(-194.81 -311.02)" style="fill:#2e3192"/><path d="M558.7,370A172.72,172.72,0,0,0,538.18,368q-6.36,0-8.82,1.5a5.14,5.14,0,0,0-2.46,4.74,4.66,4.66,0,0,0,2.7,4.56q2.7,1.32,12.72,3.06t14.22,5.46q4.2,3.72,4.2,13.2t-6.06,13.92q-6.06,4.44-17.7,4.44a106.53,106.53,0,0,1-18.48-2l-3.72-.6.48-10.92A178.54,178.54,0,0,0,536,407.27q6.36,0,9.06-1.56a5.49,5.49,0,0,0,2.7-5.16q0-3.6-2.58-5t-12.36-3q-9.78-1.62-14.34-5.1t-4.56-12.72q0-9.24,6.3-13.8t16.14-4.56a114.27,114.27,0,0,1,18.84,1.92l3.72.72Z" transform="translate(-194.81 -311.02)" style="fill:#2e3192"/><path d="M612,370A172.72,172.72,0,0,0,591.46,368q-6.36,0-8.82,1.5a5.14,5.14,0,0,0-2.46,4.74,4.66,4.66,0,0,0,2.7,4.56q2.7,1.32,12.72,3.06t14.22,5.46q4.2,3.72,4.2,13.2T608,414.47q-6.06,4.44-17.7,4.44a106.53,106.53,0,0,1-18.48-2l-3.72-.6.48-10.92a178.54,178.54,0,0,0,20.76,1.92q6.36,0,9.06-1.56a5.49,5.49,0,0,0,2.7-5.16q0-3.6-2.58-5t-12.36-3q-9.78-1.62-14.34-5.1t-4.56-12.72q0-9.24,6.3-13.8t16.14-4.56a114.27,114.27,0,0,1,18.84,1.92l3.72.72Z" transform="translate(-194.81 -311.02)" style="fill:#2e3192"/><path d="M668,376.07v27.36a5.7,5.7,0,0,0,1.38,3.9,6.65,6.65,0,0,0,3.9,1.62l-.36,10q-10.32,0-16-4.44a45.65,45.65,0,0,1-19.32,4.44q-17.88,0-17.88-19.08,0-9.12,4.86-13.2t14.94-4.92l15.48-1.32v-4.32q0-4.8-2.1-6.72t-6.18-1.92q-7.68,0-19.2,1l-3.84.24-.48-9.24a104.3,104.3,0,0,1,24.06-3.12q11,0,15.84,4.74T668,376.07ZM641.14,391q-8.28.72-8.28,9t7.32,8.28a46.35,46.35,0,0,0,12.72-1.92l2.16-.72v-16Z" transform="translate(-194.81 -311.02)" style="fill:#2e3192"/><path d="M713.14,392h-16.8v25.56H683v-82.2h30.12q28,0,28,27.6,0,14.16-7,21.6T713.14,392Zm-16.8-11.52H713q14.4,0,14.4-17.52,0-8.4-3.48-12.24T713,346.91H696.34Z" transform="translate(-194.81 -311.02)" style="fill:#2e3192"/><path d="M749.38,347.39v-13.8h13.08v13.8Zm0,70.2v-60h13.08v60Z" transform="translate(-194.81 -311.02)" style="fill:#2e3192"/><path d="M775.29,443.39v-85.8h13v3.72c5.53-3.36,10.68-5,15.49-5q11.88,0,17.39,7.26t5.53,24.36q0,17.1-6.3,24.06t-20.58,7a70.29,70.29,0,0,1-11.4-1.08v25.56Zm26.17-75.48a27.46,27.46,0,0,0-11.29,2.52l-1.79.84v35.4a53.76,53.76,0,0,0,10.55,1q8.16,0,11.28-4.68t3.12-16Q813.33,367.91,801.46,367.91Z" transform="translate(-194.81 -311.02)" style="fill:#2e3192"/><path d="M879.45,406.79l3.36-.36.24,9.72a124.25,124.25,0,0,1-24.24,2.76q-13.32,0-19.14-7.32t-5.82-23.4q0-31.92,26-31.92,25.2,0,25.2,27.48l-.84,9.36h-37.2q.12,7.44,3.24,10.92t11.64,3.48Q870.45,407.51,879.45,406.79ZM872.25,383q0-8.88-2.82-12.42t-9.54-3.54q-6.72,0-9.78,3.72T846.93,383Z" transform="translate(-194.81 -311.02)" style="fill:#2e3192"/><path d="M894.69,417.59v-60h13v7.2a57,57,0,0,1,20.4-8.52v13.08a84.2,84.2,0,0,0-17.64,5.28l-2.64,1.08v41.88Z" transform="translate(-194.81 -311.02)" style="fill:#2e3192"/><path d="M981.32,311q0,5.06-13.4,60.68t-13.41,68H943.45q0-4.77,13.48-59.8T970.41,311Z" transform="translate(-194.81 -311.02)" style="fill:#fff"/><path d="M1072.85,371.79,1001,415.15,992.87,403l63.57-34.47v-2.25l-63.57-34.47,8.1-11.92,71.88,43.36Z" transform="translate(-194.81 -311.02)" style="fill:#fff"/></svg>